<?xml version="1.0" encoding="utf-8"?>
<!-- Generated by IcoMoon.io -->
<!DOCTYPE svg PUBLIC "-//W3C//DTD SVG 1.1//EN" "http://www.w3.org/Graphics/SVG/1.1/DTD/svg11.dtd">
<svg version="1.1" xmlns="http://www.w3.org/2000/svg" xmlns:xlink="http://www.w3.org/1999/xlink" width="1344" height="1024" viewBox="0 0 1344 1024">
<g id="icomoon-ignore">
</g>
<path fill="#000" d="M1264 192h-240c-61.664 0-63.936-57.504-64-64v-32c0-40.256-44.48-96-128-96h-319.008c-93.92 0-128 57.408-128 96v31.808c-0.032 2.624-1.536 64.192-64.992 64.192h-240c-44.128 0-80 35.904-80 80v576c0 44.096 35.872 80 80 80h192c8.832 0 16-7.168 16-16s-7.168-16-16-16h-192c-26.464 0-48-21.536-48-48v-400h256c-20.608 49.28-32 103.328-32 160 0 229.376 186.624 416 416 416s416-186.624 416-416c0-56.672-11.488-110.72-32.096-160h256.096v400c0 26.464-21.536 48-48 48h-224c-8.832 0-16 7.168-16 16s7.168 16 16 16h224c44.128 0 80-35.904 80-80v-576c0-44.096-35.872-80-80-80zM672 992c-211.744 0-384-172.256-384-384s172.256-384 384-384 384 172.256 384 384-172.256 384-384 384zM1048 416c-2.368 0-4.576 0.576-6.592 1.504-69.248-133.728-208.704-225.504-369.408-225.504s-300.16 91.776-369.408 225.504c-2.016-0.928-4.224-1.504-6.592-1.504h-264v-144c0-26.464 21.536-48 48-48h240c75.776 0 96.608-62.656 96.992-96v-32c0-25.728 25.568-64 96-64h319.008c67.008 0 96 42.368 96 64v32c0 33.216 20.064 96 96 96h240c26.464 0 48 21.536 48 48v144h-264zM304 160c8.832 0 16-7.168 16-16v-32c0-26.464-21.536-48-48-48h-128c-26.464 0-48 21.536-48 48v32c0 8.832 7.168 16 16 16s16-7.168 16-16v-32c0-8.832 7.2-16 16-16h128c8.8 0 16 7.168 16 16v32c0 8.832 7.168 16 16 16zM672 320c-158.816 0-288 129.216-288 288s129.184 288 288 288 288-129.216 288-288-129.184-288-288-288zM672 864c-141.152 0-256-114.848-256-256s114.848-256 256-256 256 114.848 256 256-114.848 256-256 256z"></path>
</svg>
